<svg xmlns="http://www.w3.org/2000/svg" width="357" height="442" viewBox="0 0 357 442">
  <g id="Group_340" data-name="Group 340" transform="translate(-1844 -286)" opacity="0.35">
    <g id="Group_336" data-name="Group 336" transform="translate(1294 151)">
      <circle id="Ellipse_159" data-name="Ellipse 159" cx="4.5" cy="4.5" r="4.5" transform="translate(550 135)" fill="#08c6a2"/>
      <circle id="Ellipse_159-2" data-name="Ellipse 159" cx="4.5" cy="4.5" r="4.5" transform="translate(579 135)" fill="#08c6a2"/>
      <circle id="Ellipse_159-3" data-name="Ellipse 159" cx="4.5" cy="4.5" r="4.5" transform="translate(608 135)" fill="#08c6a2"/>
      <circle id="Ellipse_159-4" data-name="Ellipse 159" cx="4.5" cy="4.5" r="4.5" transform="translate(637 135)" fill="#08c6a2"/>
      <circle id="Ellipse_159-5" data-name="Ellipse 159" cx="4.5" cy="4.5" r="4.5" transform="translate(666 135)" fill="#08c6a2"/>
      <circle id="Ellipse_159-6" data-name="Ellipse 159" cx="4.5" cy="4.5" r="4.5" transform="translate(695 135)" fill="#08c6a2"/>
      <circle id="Ellipse_159-7" data-name="Ellipse 159" cx="4.5" cy="4.5" r="4.5" transform="translate(724 135)" fill="#08c6a2"/>
      <circle id="Ellipse_159-8" data-name="Ellipse 159" cx="4.5" cy="4.5" r="4.5" transform="translate(753 135)" fill="#08c6a2"/>
      <circle id="Ellipse_159-9" data-name="Ellipse 159" cx="4.5" cy="4.5" r="4.5" transform="translate(782 135)" fill="#08c6a2"/>
      <circle id="Ellipse_159-10" data-name="Ellipse 159" cx="4.5" cy="4.5" r="4.5" transform="translate(811 135)" fill="#08c6a2"/>
      <circle id="Ellipse_159-11" data-name="Ellipse 159" cx="4.5" cy="4.5" r="4.5" transform="translate(840 135)" fill="#08c6a2"/>
      <circle id="Ellipse_159-12" data-name="Ellipse 159" cx="4.5" cy="4.5" r="4.5" transform="translate(869 135)" fill="#08c6a2"/>
      <circle id="Ellipse_159-13" data-name="Ellipse 159" cx="4.5" cy="4.5" r="4.5" transform="translate(898 135)" fill="#08c6a2"/>
      <circle id="Ellipse_159-14" data-name="Ellipse 159" cx="4.5" cy="4.5" r="4.5" transform="translate(550 164)" fill="#08c6a2"/>
      <circle id="Ellipse_159-15" data-name="Ellipse 159" cx="4.5" cy="4.5" r="4.5" transform="translate(579 164)" fill="#08c6a2"/>
      <circle id="Ellipse_159-16" data-name="Ellipse 159" cx="4.5" cy="4.5" r="4.5" transform="translate(608 164)" fill="#08c6a2"/>
      <circle id="Ellipse_159-17" data-name="Ellipse 159" cx="4.5" cy="4.5" r="4.5" transform="translate(637 164)" fill="#08c6a2"/>
      <circle id="Ellipse_159-18" data-name="Ellipse 159" cx="4.5" cy="4.5" r="4.5" transform="translate(666 164)" fill="#08c6a2"/>
      <circle id="Ellipse_159-19" data-name="Ellipse 159" cx="4.5" cy="4.5" r="4.5" transform="translate(695 164)" fill="#08c6a2"/>
      <circle id="Ellipse_159-20" data-name="Ellipse 159" cx="4.5" cy="4.5" r="4.5" transform="translate(724 164)" fill="#08c6a2"/>
      <circle id="Ellipse_159-21" data-name="Ellipse 159" cx="4.5" cy="4.5" r="4.5" transform="translate(753 164)" fill="#08c6a2"/>
      <circle id="Ellipse_159-22" data-name="Ellipse 159" cx="4.5" cy="4.5" r="4.5" transform="translate(782 164)" fill="#08c6a2"/>
      <circle id="Ellipse_159-23" data-name="Ellipse 159" cx="4.5" cy="4.5" r="4.5" transform="translate(811 164)" fill="#08c6a2"/>
      <circle id="Ellipse_159-24" data-name="Ellipse 159" cx="4.5" cy="4.5" r="4.5" transform="translate(840 164)" fill="#08c6a2"/>
      <circle id="Ellipse_159-25" data-name="Ellipse 159" cx="4.5" cy="4.5" r="4.5" transform="translate(869 164)" fill="#08c6a2"/>
      <circle id="Ellipse_159-26" data-name="Ellipse 159" cx="4.5" cy="4.5" r="4.5" transform="translate(898 164)" fill="#08c6a2"/>
      <circle id="Ellipse_159-27" data-name="Ellipse 159" cx="4.5" cy="4.5" r="4.5" transform="translate(550 193)" fill="#08c6a2"/>
      <circle id="Ellipse_159-28" data-name="Ellipse 159" cx="4.5" cy="4.5" r="4.5" transform="translate(579 193)" fill="#08c6a2"/>
      <circle id="Ellipse_159-29" data-name="Ellipse 159" cx="4.5" cy="4.5" r="4.5" transform="translate(608 193)" fill="#08c6a2"/>
      <circle id="Ellipse_159-30" data-name="Ellipse 159" cx="4.5" cy="4.5" r="4.5" transform="translate(637 193)" fill="#08c6a2"/>
      <circle id="Ellipse_159-31" data-name="Ellipse 159" cx="4.5" cy="4.5" r="4.5" transform="translate(666 193)" fill="#08c6a2"/>
      <circle id="Ellipse_159-32" data-name="Ellipse 159" cx="4.5" cy="4.5" r="4.5" transform="translate(695 193)" fill="#08c6a2"/>
      <circle id="Ellipse_159-33" data-name="Ellipse 159" cx="4.5" cy="4.5" r="4.5" transform="translate(724 193)" fill="#08c6a2"/>
      <circle id="Ellipse_159-34" data-name="Ellipse 159" cx="4.5" cy="4.5" r="4.5" transform="translate(753 193)" fill="#08c6a2"/>
      <circle id="Ellipse_159-35" data-name="Ellipse 159" cx="4.5" cy="4.5" r="4.5" transform="translate(782 193)" fill="#08c6a2"/>
      <circle id="Ellipse_159-36" data-name="Ellipse 159" cx="4.5" cy="4.5" r="4.5" transform="translate(811 193)" fill="#08c6a2"/>
      <circle id="Ellipse_159-37" data-name="Ellipse 159" cx="4.5" cy="4.5" r="4.5" transform="translate(840 193)" fill="#08c6a2"/>
      <circle id="Ellipse_159-38" data-name="Ellipse 159" cx="4.5" cy="4.5" r="4.5" transform="translate(869 193)" fill="#08c6a2"/>
      <circle id="Ellipse_159-39" data-name="Ellipse 159" cx="4.5" cy="4.5" r="4.5" transform="translate(898 193)" fill="#08c6a2"/>
      <circle id="Ellipse_159-40" data-name="Ellipse 159" cx="4.5" cy="4.5" r="4.5" transform="translate(550 222)" fill="#08c6a2"/>
      <circle id="Ellipse_159-41" data-name="Ellipse 159" cx="4.5" cy="4.5" r="4.5" transform="translate(579 222)" fill="#08c6a2"/>
      <circle id="Ellipse_159-42" data-name="Ellipse 159" cx="4.5" cy="4.5" r="4.5" transform="translate(608 222)" fill="#08c6a2"/>
      <circle id="Ellipse_159-43" data-name="Ellipse 159" cx="4.5" cy="4.5" r="4.5" transform="translate(637 222)" fill="#08c6a2"/>
      <circle id="Ellipse_159-44" data-name="Ellipse 159" cx="4.5" cy="4.5" r="4.5" transform="translate(666 222)" fill="#08c6a2"/>
      <circle id="Ellipse_159-45" data-name="Ellipse 159" cx="4.5" cy="4.5" r="4.5" transform="translate(695 222)" fill="#08c6a2"/>
      <circle id="Ellipse_159-46" data-name="Ellipse 159" cx="4.5" cy="4.5" r="4.5" transform="translate(724 222)" fill="#08c6a2"/>
      <circle id="Ellipse_159-47" data-name="Ellipse 159" cx="4.5" cy="4.5" r="4.5" transform="translate(753 222)" fill="#08c6a2"/>
      <circle id="Ellipse_159-48" data-name="Ellipse 159" cx="4.5" cy="4.5" r="4.5" transform="translate(782 222)" fill="#08c6a2"/>
      <circle id="Ellipse_159-49" data-name="Ellipse 159" cx="4.5" cy="4.5" r="4.5" transform="translate(811 222)" fill="#08c6a2"/>
      <circle id="Ellipse_159-50" data-name="Ellipse 159" cx="4.5" cy="4.5" r="4.5" transform="translate(840 222)" fill="#08c6a2"/>
      <circle id="Ellipse_159-51" data-name="Ellipse 159" cx="4.5" cy="4.5" r="4.5" transform="translate(869 222)" fill="#08c6a2"/>
      <circle id="Ellipse_159-52" data-name="Ellipse 159" cx="4.5" cy="4.5" r="4.5" transform="translate(898 222)" fill="#08c6a2"/>
      <circle id="Ellipse_159-53" data-name="Ellipse 159" cx="4.5" cy="4.5" r="4.5" transform="translate(550 251)" fill="#08c6a2"/>
      <circle id="Ellipse_159-54" data-name="Ellipse 159" cx="4.5" cy="4.5" r="4.5" transform="translate(579 251)" fill="#08c6a2"/>
      <circle id="Ellipse_159-55" data-name="Ellipse 159" cx="4.5" cy="4.5" r="4.5" transform="translate(608 251)" fill="#08c6a2"/>
      <circle id="Ellipse_159-56" data-name="Ellipse 159" cx="4.5" cy="4.5" r="4.5" transform="translate(637 251)" fill="#08c6a2"/>
      <circle id="Ellipse_159-57" data-name="Ellipse 159" cx="4.5" cy="4.5" r="4.5" transform="translate(666 251)" fill="#08c6a2"/>
      <circle id="Ellipse_159-58" data-name="Ellipse 159" cx="4.5" cy="4.5" r="4.5" transform="translate(695 251)" fill="#08c6a2"/>
      <circle id="Ellipse_159-59" data-name="Ellipse 159" cx="4.5" cy="4.5" r="4.5" transform="translate(724 251)" fill="#08c6a2"/>
      <circle id="Ellipse_159-60" data-name="Ellipse 159" cx="4.5" cy="4.5" r="4.5" transform="translate(753 251)" fill="#08c6a2"/>
      <circle id="Ellipse_159-61" data-name="Ellipse 159" cx="4.5" cy="4.5" r="4.5" transform="translate(782 251)" fill="#08c6a2"/>
      <circle id="Ellipse_159-62" data-name="Ellipse 159" cx="4.5" cy="4.5" r="4.5" transform="translate(811 251)" fill="#08c6a2"/>
      <circle id="Ellipse_159-63" data-name="Ellipse 159" cx="4.5" cy="4.5" r="4.5" transform="translate(840 251)" fill="#08c6a2"/>
      <circle id="Ellipse_159-64" data-name="Ellipse 159" cx="4.5" cy="4.5" r="4.5" transform="translate(869 251)" fill="#08c6a2"/>
      <circle id="Ellipse_159-65" data-name="Ellipse 159" cx="4.5" cy="4.5" r="4.5" transform="translate(898 251)" fill="#08c6a2"/>
      <circle id="Ellipse_159-66" data-name="Ellipse 159" cx="4.5" cy="4.5" r="4.5" transform="translate(550 280)" fill="#08c6a2"/>
      <circle id="Ellipse_159-67" data-name="Ellipse 159" cx="4.5" cy="4.5" r="4.5" transform="translate(579 280)" fill="#08c6a2"/>
      <circle id="Ellipse_159-68" data-name="Ellipse 159" cx="4.5" cy="4.5" r="4.5" transform="translate(608 280)" fill="#08c6a2"/>
      <circle id="Ellipse_159-69" data-name="Ellipse 159" cx="4.5" cy="4.5" r="4.5" transform="translate(637 280)" fill="#08c6a2"/>
      <circle id="Ellipse_159-70" data-name="Ellipse 159" cx="4.5" cy="4.5" r="4.5" transform="translate(666 280)" fill="#08c6a2"/>
      <circle id="Ellipse_159-71" data-name="Ellipse 159" cx="4.5" cy="4.5" r="4.5" transform="translate(695 280)" fill="#08c6a2"/>
      <circle id="Ellipse_159-72" data-name="Ellipse 159" cx="4.5" cy="4.5" r="4.5" transform="translate(724 280)" fill="#08c6a2"/>
      <circle id="Ellipse_159-73" data-name="Ellipse 159" cx="4.5" cy="4.5" r="4.5" transform="translate(753 280)" fill="#08c6a2"/>
      <circle id="Ellipse_159-74" data-name="Ellipse 159" cx="4.5" cy="4.5" r="4.5" transform="translate(782 280)" fill="#08c6a2"/>
      <circle id="Ellipse_159-75" data-name="Ellipse 159" cx="4.5" cy="4.5" r="4.5" transform="translate(811 280)" fill="#08c6a2"/>
      <circle id="Ellipse_159-76" data-name="Ellipse 159" cx="4.5" cy="4.5" r="4.5" transform="translate(840 280)" fill="#08c6a2"/>
      <circle id="Ellipse_159-77" data-name="Ellipse 159" cx="4.5" cy="4.5" r="4.5" transform="translate(869 280)" fill="#08c6a2"/>
      <circle id="Ellipse_159-78" data-name="Ellipse 159" cx="4.5" cy="4.5" r="4.5" transform="translate(898 280)" fill="#08c6a2"/>
      <circle id="Ellipse_159-79" data-name="Ellipse 159" cx="4.5" cy="4.5" r="4.5" transform="translate(550 309)" fill="#08c6a2"/>
      <circle id="Ellipse_159-80" data-name="Ellipse 159" cx="4.5" cy="4.5" r="4.5" transform="translate(579 309)" fill="#08c6a2"/>
      <circle id="Ellipse_159-81" data-name="Ellipse 159" cx="4.5" cy="4.5" r="4.5" transform="translate(608 309)" fill="#08c6a2"/>
      <circle id="Ellipse_159-82" data-name="Ellipse 159" cx="4.5" cy="4.5" r="4.5" transform="translate(637 309)" fill="#08c6a2"/>
      <circle id="Ellipse_159-83" data-name="Ellipse 159" cx="4.5" cy="4.5" r="4.5" transform="translate(666 309)" fill="#08c6a2"/>
      <circle id="Ellipse_159-84" data-name="Ellipse 159" cx="4.5" cy="4.5" r="4.5" transform="translate(695 309)" fill="#08c6a2"/>
      <circle id="Ellipse_159-85" data-name="Ellipse 159" cx="4.5" cy="4.5" r="4.5" transform="translate(724 309)" fill="#08c6a2"/>
      <circle id="Ellipse_159-86" data-name="Ellipse 159" cx="4.5" cy="4.5" r="4.5" transform="translate(753 309)" fill="#08c6a2"/>
      <circle id="Ellipse_159-87" data-name="Ellipse 159" cx="4.5" cy="4.5" r="4.5" transform="translate(782 309)" fill="#08c6a2"/>
      <circle id="Ellipse_159-88" data-name="Ellipse 159" cx="4.5" cy="4.5" r="4.5" transform="translate(811 309)" fill="#08c6a2"/>
      <circle id="Ellipse_159-89" data-name="Ellipse 159" cx="4.5" cy="4.5" r="4.5" transform="translate(840 309)" fill="#08c6a2"/>
      <circle id="Ellipse_159-90" data-name="Ellipse 159" cx="4.5" cy="4.5" r="4.5" transform="translate(869 309)" fill="#08c6a2"/>
      <circle id="Ellipse_159-91" data-name="Ellipse 159" cx="4.5" cy="4.5" r="4.5" transform="translate(898 309)" fill="#08c6a2"/>
      <circle id="Ellipse_159-92" data-name="Ellipse 159" cx="4.5" cy="4.5" r="4.5" transform="translate(550 338)" fill="#08c6a2"/>
      <circle id="Ellipse_159-93" data-name="Ellipse 159" cx="4.5" cy="4.5" r="4.5" transform="translate(579 338)" fill="#08c6a2"/>
      <circle id="Ellipse_159-94" data-name="Ellipse 159" cx="4.5" cy="4.5" r="4.5" transform="translate(608 338)" fill="#08c6a2"/>
      <circle id="Ellipse_159-95" data-name="Ellipse 159" cx="4.5" cy="4.5" r="4.5" transform="translate(637 338)" fill="#08c6a2"/>
      <circle id="Ellipse_159-96" data-name="Ellipse 159" cx="4.5" cy="4.5" r="4.5" transform="translate(666 338)" fill="#08c6a2"/>
      <circle id="Ellipse_159-97" data-name="Ellipse 159" cx="4.5" cy="4.5" r="4.5" transform="translate(695 338)" fill="#08c6a2"/>
      <circle id="Ellipse_159-98" data-name="Ellipse 159" cx="4.5" cy="4.5" r="4.5" transform="translate(724 338)" fill="#08c6a2"/>
      <circle id="Ellipse_159-99" data-name="Ellipse 159" cx="4.5" cy="4.5" r="4.5" transform="translate(753 338)" fill="#08c6a2"/>
      <circle id="Ellipse_159-100" data-name="Ellipse 159" cx="4.5" cy="4.5" r="4.5" transform="translate(782 338)" fill="#08c6a2"/>
      <circle id="Ellipse_159-101" data-name="Ellipse 159" cx="4.5" cy="4.5" r="4.5" transform="translate(811 338)" fill="#08c6a2"/>
      <circle id="Ellipse_159-102" data-name="Ellipse 159" cx="4.5" cy="4.5" r="4.5" transform="translate(840 338)" fill="#08c6a2"/>
      <circle id="Ellipse_159-103" data-name="Ellipse 159" cx="4.5" cy="4.5" r="4.5" transform="translate(869 338)" fill="#08c6a2"/>
      <circle id="Ellipse_159-104" data-name="Ellipse 159" cx="4.5" cy="4.5" r="4.5" transform="translate(898 338)" fill="#08c6a2"/>
    </g>
    <g id="Group_337" data-name="Group 337" transform="translate(1294 381)">
      <circle id="Ellipse_159-105" data-name="Ellipse 159" cx="4.5" cy="4.5" r="4.5" transform="translate(550 135)" fill="#08c6a2"/>
      <circle id="Ellipse_159-106" data-name="Ellipse 159" cx="4.5" cy="4.5" r="4.5" transform="translate(579 135)" fill="#08c6a2"/>
      <circle id="Ellipse_159-107" data-name="Ellipse 159" cx="4.5" cy="4.5" r="4.5" transform="translate(608 135)" fill="#08c6a2"/>
      <circle id="Ellipse_159-108" data-name="Ellipse 159" cx="4.5" cy="4.5" r="4.5" transform="translate(637 135)" fill="#08c6a2"/>
      <circle id="Ellipse_159-109" data-name="Ellipse 159" cx="4.5" cy="4.5" r="4.5" transform="translate(666 135)" fill="#08c6a2"/>
      <circle id="Ellipse_159-110" data-name="Ellipse 159" cx="4.5" cy="4.5" r="4.5" transform="translate(695 135)" fill="#08c6a2"/>
      <circle id="Ellipse_159-111" data-name="Ellipse 159" cx="4.5" cy="4.5" r="4.5" transform="translate(724 135)" fill="#08c6a2"/>
      <circle id="Ellipse_159-112" data-name="Ellipse 159" cx="4.5" cy="4.5" r="4.5" transform="translate(753 135)" fill="#08c6a2"/>
      <circle id="Ellipse_159-113" data-name="Ellipse 159" cx="4.5" cy="4.5" r="4.5" transform="translate(782 135)" fill="#08c6a2"/>
      <circle id="Ellipse_159-114" data-name="Ellipse 159" cx="4.5" cy="4.5" r="4.5" transform="translate(811 135)" fill="#08c6a2"/>
      <circle id="Ellipse_159-115" data-name="Ellipse 159" cx="4.5" cy="4.5" r="4.5" transform="translate(840 135)" fill="#08c6a2"/>
      <circle id="Ellipse_159-116" data-name="Ellipse 159" cx="4.5" cy="4.5" r="4.5" transform="translate(869 135)" fill="#08c6a2"/>
      <circle id="Ellipse_159-117" data-name="Ellipse 159" cx="4.5" cy="4.5" r="4.5" transform="translate(898 135)" fill="#08c6a2"/>
      <circle id="Ellipse_159-118" data-name="Ellipse 159" cx="4.5" cy="4.5" r="4.5" transform="translate(550 164)" fill="#08c6a2"/>
      <circle id="Ellipse_159-119" data-name="Ellipse 159" cx="4.5" cy="4.5" r="4.5" transform="translate(579 164)" fill="#08c6a2"/>
      <circle id="Ellipse_159-120" data-name="Ellipse 159" cx="4.5" cy="4.5" r="4.5" transform="translate(608 164)" fill="#08c6a2"/>
      <circle id="Ellipse_159-121" data-name="Ellipse 159" cx="4.5" cy="4.5" r="4.5" transform="translate(637 164)" fill="#08c6a2"/>
      <circle id="Ellipse_159-122" data-name="Ellipse 159" cx="4.5" cy="4.5" r="4.5" transform="translate(666 164)" fill="#08c6a2"/>
      <circle id="Ellipse_159-123" data-name="Ellipse 159" cx="4.5" cy="4.5" r="4.5" transform="translate(695 164)" fill="#08c6a2"/>
      <circle id="Ellipse_159-124" data-name="Ellipse 159" cx="4.5" cy="4.5" r="4.5" transform="translate(724 164)" fill="#08c6a2"/>
      <circle id="Ellipse_159-125" data-name="Ellipse 159" cx="4.5" cy="4.5" r="4.5" transform="translate(753 164)" fill="#08c6a2"/>
      <circle id="Ellipse_159-126" data-name="Ellipse 159" cx="4.5" cy="4.5" r="4.5" transform="translate(782 164)" fill="#08c6a2"/>
      <circle id="Ellipse_159-127" data-name="Ellipse 159" cx="4.5" cy="4.5" r="4.5" transform="translate(811 164)" fill="#08c6a2"/>
      <circle id="Ellipse_159-128" data-name="Ellipse 159" cx="4.5" cy="4.5" r="4.5" transform="translate(840 164)" fill="#08c6a2"/>
      <circle id="Ellipse_159-129" data-name="Ellipse 159" cx="4.5" cy="4.5" r="4.5" transform="translate(869 164)" fill="#08c6a2"/>
      <circle id="Ellipse_159-130" data-name="Ellipse 159" cx="4.5" cy="4.5" r="4.5" transform="translate(898 164)" fill="#08c6a2"/>
      <circle id="Ellipse_159-131" data-name="Ellipse 159" cx="4.5" cy="4.5" r="4.5" transform="translate(550 193)" fill="#08c6a2"/>
      <circle id="Ellipse_159-132" data-name="Ellipse 159" cx="4.5" cy="4.5" r="4.5" transform="translate(579 193)" fill="#08c6a2"/>
      <circle id="Ellipse_159-133" data-name="Ellipse 159" cx="4.5" cy="4.5" r="4.5" transform="translate(608 193)" fill="#08c6a2"/>
      <circle id="Ellipse_159-134" data-name="Ellipse 159" cx="4.5" cy="4.5" r="4.5" transform="translate(637 193)" fill="#08c6a2"/>
      <circle id="Ellipse_159-135" data-name="Ellipse 159" cx="4.5" cy="4.5" r="4.5" transform="translate(666 193)" fill="#08c6a2"/>
      <circle id="Ellipse_159-136" data-name="Ellipse 159" cx="4.5" cy="4.5" r="4.5" transform="translate(695 193)" fill="#08c6a2"/>
      <circle id="Ellipse_159-137" data-name="Ellipse 159" cx="4.5" cy="4.5" r="4.5" transform="translate(724 193)" fill="#08c6a2"/>
      <circle id="Ellipse_159-138" data-name="Ellipse 159" cx="4.5" cy="4.5" r="4.5" transform="translate(753 193)" fill="#08c6a2"/>
      <circle id="Ellipse_159-139" data-name="Ellipse 159" cx="4.5" cy="4.5" r="4.5" transform="translate(782 193)" fill="#08c6a2"/>
      <circle id="Ellipse_159-140" data-name="Ellipse 159" cx="4.5" cy="4.5" r="4.5" transform="translate(811 193)" fill="#08c6a2"/>
      <circle id="Ellipse_159-141" data-name="Ellipse 159" cx="4.5" cy="4.5" r="4.5" transform="translate(840 193)" fill="#08c6a2"/>
      <circle id="Ellipse_159-142" data-name="Ellipse 159" cx="4.5" cy="4.5" r="4.5" transform="translate(869 193)" fill="#08c6a2"/>
      <circle id="Ellipse_159-143" data-name="Ellipse 159" cx="4.5" cy="4.5" r="4.5" transform="translate(898 193)" fill="#08c6a2"/>
      <circle id="Ellipse_159-144" data-name="Ellipse 159" cx="4.5" cy="4.5" r="4.5" transform="translate(550 222)" fill="#08c6a2"/>
      <circle id="Ellipse_159-145" data-name="Ellipse 159" cx="4.5" cy="4.5" r="4.5" transform="translate(579 222)" fill="#08c6a2"/>
      <circle id="Ellipse_159-146" data-name="Ellipse 159" cx="4.5" cy="4.5" r="4.5" transform="translate(608 222)" fill="#08c6a2"/>
      <circle id="Ellipse_159-147" data-name="Ellipse 159" cx="4.5" cy="4.5" r="4.5" transform="translate(637 222)" fill="#08c6a2"/>
      <circle id="Ellipse_159-148" data-name="Ellipse 159" cx="4.5" cy="4.5" r="4.5" transform="translate(666 222)" fill="#08c6a2"/>
      <circle id="Ellipse_159-149" data-name="Ellipse 159" cx="4.5" cy="4.5" r="4.5" transform="translate(695 222)" fill="#08c6a2"/>
      <circle id="Ellipse_159-150" data-name="Ellipse 159" cx="4.5" cy="4.5" r="4.5" transform="translate(724 222)" fill="#08c6a2"/>
      <circle id="Ellipse_159-151" data-name="Ellipse 159" cx="4.5" cy="4.5" r="4.5" transform="translate(753 222)" fill="#08c6a2"/>
      <circle id="Ellipse_159-152" data-name="Ellipse 159" cx="4.5" cy="4.5" r="4.5" transform="translate(782 222)" fill="#08c6a2"/>
      <circle id="Ellipse_159-153" data-name="Ellipse 159" cx="4.5" cy="4.5" r="4.5" transform="translate(811 222)" fill="#08c6a2"/>
      <circle id="Ellipse_159-154" data-name="Ellipse 159" cx="4.5" cy="4.5" r="4.5" transform="translate(840 222)" fill="#08c6a2"/>
      <circle id="Ellipse_159-155" data-name="Ellipse 159" cx="4.5" cy="4.5" r="4.5" transform="translate(869 222)" fill="#08c6a2"/>
      <circle id="Ellipse_159-156" data-name="Ellipse 159" cx="4.5" cy="4.5" r="4.5" transform="translate(898 222)" fill="#08c6a2"/>
      <circle id="Ellipse_159-157" data-name="Ellipse 159" cx="4.5" cy="4.5" r="4.5" transform="translate(550 251)" fill="#08c6a2"/>
      <circle id="Ellipse_159-158" data-name="Ellipse 159" cx="4.5" cy="4.5" r="4.5" transform="translate(579 251)" fill="#08c6a2"/>
      <circle id="Ellipse_159-159" data-name="Ellipse 159" cx="4.5" cy="4.5" r="4.5" transform="translate(608 251)" fill="#08c6a2"/>
      <circle id="Ellipse_159-160" data-name="Ellipse 159" cx="4.5" cy="4.5" r="4.5" transform="translate(637 251)" fill="#08c6a2"/>
      <circle id="Ellipse_159-161" data-name="Ellipse 159" cx="4.5" cy="4.5" r="4.5" transform="translate(666 251)" fill="#08c6a2"/>
      <circle id="Ellipse_159-162" data-name="Ellipse 159" cx="4.5" cy="4.5" r="4.5" transform="translate(695 251)" fill="#08c6a2"/>
      <circle id="Ellipse_159-163" data-name="Ellipse 159" cx="4.5" cy="4.5" r="4.5" transform="translate(724 251)" fill="#08c6a2"/>
      <circle id="Ellipse_159-164" data-name="Ellipse 159" cx="4.5" cy="4.5" r="4.5" transform="translate(753 251)" fill="#08c6a2"/>
      <circle id="Ellipse_159-165" data-name="Ellipse 159" cx="4.5" cy="4.5" r="4.5" transform="translate(782 251)" fill="#08c6a2"/>
      <circle id="Ellipse_159-166" data-name="Ellipse 159" cx="4.5" cy="4.5" r="4.5" transform="translate(811 251)" fill="#08c6a2"/>
      <circle id="Ellipse_159-167" data-name="Ellipse 159" cx="4.5" cy="4.5" r="4.5" transform="translate(840 251)" fill="#08c6a2"/>
      <circle id="Ellipse_159-168" data-name="Ellipse 159" cx="4.5" cy="4.5" r="4.5" transform="translate(869 251)" fill="#08c6a2"/>
      <circle id="Ellipse_159-169" data-name="Ellipse 159" cx="4.5" cy="4.5" r="4.5" transform="translate(898 251)" fill="#08c6a2"/>
      <circle id="Ellipse_159-170" data-name="Ellipse 159" cx="4.5" cy="4.5" r="4.5" transform="translate(550 280)" fill="#08c6a2"/>
      <circle id="Ellipse_159-171" data-name="Ellipse 159" cx="4.5" cy="4.5" r="4.5" transform="translate(579 280)" fill="#08c6a2"/>
      <circle id="Ellipse_159-172" data-name="Ellipse 159" cx="4.5" cy="4.5" r="4.5" transform="translate(608 280)" fill="#08c6a2"/>
      <circle id="Ellipse_159-173" data-name="Ellipse 159" cx="4.5" cy="4.5" r="4.5" transform="translate(637 280)" fill="#08c6a2"/>
      <circle id="Ellipse_159-174" data-name="Ellipse 159" cx="4.5" cy="4.5" r="4.5" transform="translate(666 280)" fill="#08c6a2"/>
      <circle id="Ellipse_159-175" data-name="Ellipse 159" cx="4.5" cy="4.5" r="4.5" transform="translate(695 280)" fill="#08c6a2"/>
      <circle id="Ellipse_159-176" data-name="Ellipse 159" cx="4.5" cy="4.5" r="4.5" transform="translate(724 280)" fill="#08c6a2"/>
      <circle id="Ellipse_159-177" data-name="Ellipse 159" cx="4.5" cy="4.5" r="4.5" transform="translate(753 280)" fill="#08c6a2"/>
      <circle id="Ellipse_159-178" data-name="Ellipse 159" cx="4.5" cy="4.5" r="4.5" transform="translate(782 280)" fill="#08c6a2"/>
      <circle id="Ellipse_159-179" data-name="Ellipse 159" cx="4.5" cy="4.5" r="4.5" transform="translate(811 280)" fill="#08c6a2"/>
      <circle id="Ellipse_159-180" data-name="Ellipse 159" cx="4.5" cy="4.5" r="4.5" transform="translate(840 280)" fill="#08c6a2"/>
      <circle id="Ellipse_159-181" data-name="Ellipse 159" cx="4.5" cy="4.5" r="4.5" transform="translate(869 280)" fill="#08c6a2"/>
      <circle id="Ellipse_159-182" data-name="Ellipse 159" cx="4.5" cy="4.5" r="4.5" transform="translate(898 280)" fill="#08c6a2"/>
      <circle id="Ellipse_159-183" data-name="Ellipse 159" cx="4.5" cy="4.5" r="4.5" transform="translate(550 309)" fill="#08c6a2"/>
      <circle id="Ellipse_159-184" data-name="Ellipse 159" cx="4.5" cy="4.5" r="4.5" transform="translate(579 309)" fill="#08c6a2"/>
      <circle id="Ellipse_159-185" data-name="Ellipse 159" cx="4.5" cy="4.5" r="4.5" transform="translate(608 309)" fill="#08c6a2"/>
      <circle id="Ellipse_159-186" data-name="Ellipse 159" cx="4.5" cy="4.5" r="4.5" transform="translate(637 309)" fill="#08c6a2"/>
      <circle id="Ellipse_159-187" data-name="Ellipse 159" cx="4.5" cy="4.5" r="4.5" transform="translate(666 309)" fill="#08c6a2"/>
      <circle id="Ellipse_159-188" data-name="Ellipse 159" cx="4.5" cy="4.5" r="4.5" transform="translate(695 309)" fill="#08c6a2"/>
      <circle id="Ellipse_159-189" data-name="Ellipse 159" cx="4.5" cy="4.5" r="4.5" transform="translate(724 309)" fill="#08c6a2"/>
      <circle id="Ellipse_159-190" data-name="Ellipse 159" cx="4.5" cy="4.5" r="4.5" transform="translate(753 309)" fill="#08c6a2"/>
      <circle id="Ellipse_159-191" data-name="Ellipse 159" cx="4.5" cy="4.5" r="4.5" transform="translate(782 309)" fill="#08c6a2"/>
      <circle id="Ellipse_159-192" data-name="Ellipse 159" cx="4.5" cy="4.5" r="4.5" transform="translate(811 309)" fill="#08c6a2"/>
      <circle id="Ellipse_159-193" data-name="Ellipse 159" cx="4.5" cy="4.5" r="4.5" transform="translate(840 309)" fill="#08c6a2"/>
      <circle id="Ellipse_159-194" data-name="Ellipse 159" cx="4.5" cy="4.5" r="4.5" transform="translate(869 309)" fill="#08c6a2"/>
      <circle id="Ellipse_159-195" data-name="Ellipse 159" cx="4.5" cy="4.5" r="4.5" transform="translate(898 309)" fill="#08c6a2"/>
      <circle id="Ellipse_159-196" data-name="Ellipse 159" cx="4.5" cy="4.5" r="4.5" transform="translate(550 338)" fill="#08c6a2"/>
      <circle id="Ellipse_159-197" data-name="Ellipse 159" cx="4.5" cy="4.5" r="4.5" transform="translate(579 338)" fill="#08c6a2"/>
      <circle id="Ellipse_159-198" data-name="Ellipse 159" cx="4.5" cy="4.5" r="4.5" transform="translate(608 338)" fill="#08c6a2"/>
      <circle id="Ellipse_159-199" data-name="Ellipse 159" cx="4.5" cy="4.5" r="4.5" transform="translate(637 338)" fill="#08c6a2"/>
      <circle id="Ellipse_159-200" data-name="Ellipse 159" cx="4.5" cy="4.5" r="4.5" transform="translate(666 338)" fill="#08c6a2"/>
      <circle id="Ellipse_159-201" data-name="Ellipse 159" cx="4.5" cy="4.5" r="4.5" transform="translate(695 338)" fill="#08c6a2"/>
      <circle id="Ellipse_159-202" data-name="Ellipse 159" cx="4.5" cy="4.5" r="4.5" transform="translate(724 338)" fill="#08c6a2"/>
      <circle id="Ellipse_159-203" data-name="Ellipse 159" cx="4.5" cy="4.5" r="4.5" transform="translate(753 338)" fill="#08c6a2"/>
      <circle id="Ellipse_159-204" data-name="Ellipse 159" cx="4.5" cy="4.5" r="4.5" transform="translate(782 338)" fill="#08c6a2"/>
      <circle id="Ellipse_159-205" data-name="Ellipse 159" cx="4.5" cy="4.5" r="4.5" transform="translate(811 338)" fill="#08c6a2"/>
      <circle id="Ellipse_159-206" data-name="Ellipse 159" cx="4.5" cy="4.5" r="4.5" transform="translate(840 338)" fill="#08c6a2"/>
      <circle id="Ellipse_159-207" data-name="Ellipse 159" cx="4.5" cy="4.5" r="4.5" transform="translate(869 338)" fill="#08c6a2"/>
      <circle id="Ellipse_159-208" data-name="Ellipse 159" cx="4.5" cy="4.5" r="4.5" transform="translate(898 338)" fill="#08c6a2"/>
    </g>
  </g>
</svg>
